<mxfile host="app.diagrams.net" agent="Mozilla/5.0 (X11; Linux x86_64; rv:131.0) Gecko/20100101 Firefox/131.0" version="24.8.4">
  <diagram name="Page-1" id="RUOL-5rVlNPiTvtHbr-Q">
    <mxGraphModel dx="1715" dy="1382" grid="1" gridSize="10" guides="1" tooltips="1" connect="1" arrows="1" fold="1" page="1" pageScale="1" pageWidth="850" pageHeight="1100" math="0" shadow="0">
      <root>
        <mxCell id="0" />
        <mxCell id="1" parent="0" />
        <mxCell id="dgugD9RGf2uUf7r9yJ4--1" value="&lt;font style=&quot;font-size: 32px;&quot;&gt;Logout&lt;/font&gt;" style="ellipse;whiteSpace=wrap;html=1;aspect=fixed;strokeWidth=3;fillColor=#ffff88;strokeColor=#36393d;" vertex="1" parent="1">
          <mxGeometry x="20" y="270" width="200" height="200" as="geometry" />
        </mxCell>
        <mxCell id="dgugD9RGf2uUf7r9yJ4--2" value="&lt;font style=&quot;font-size: 32px;&quot;&gt;UsuÃ¡rio&lt;/font&gt;" style="html=1;dashed=0;whiteSpace=wrap;strokeWidth=3;fillColor=#cce5ff;strokeColor=#36393d;" vertex="1" parent="1">
          <mxGeometry x="-210" y="250" width="160" height="240" as="geometry" />
        </mxCell>
        <mxCell id="dgugD9RGf2uUf7r9yJ4--3" value="&lt;font style=&quot;font-size: 32px;&quot;&gt;Banco de Dados&lt;br&gt;&lt;/font&gt;" style="html=1;dashed=0;whiteSpace=wrap;shape=partialRectangle;right=0;strokeWidth=3;fillColor=#ffff88;strokeColor=#36393d;" vertex="1" parent="1">
          <mxGeometry x="350" y="250" width="160" height="240" as="geometry" />
        </mxCell>
      </root>
    </mxGraphModel>
  </diagram>
</mxfile>
